<svg xmlns="http://www.w3.org/2000/svg" width="100%" height="100%" viewBox="0 0 410.00001 410.00001"><g><path fill="none" d="M0 0h400v400H0z"/><path fill="#2ab9b3" fill-rule="evenodd" d="M180.4 23.92L3.98 200.34 180.4 376.76h78.4L82.4 200.34 258.8 23.92h-78.4zm112.9-.67c-11 .08-19.28.67-19.28.67l-39.25 39c64.22 2.4 109.92-.1 109.02 49.2-.92 49.33-44.8 55.97-203.1 44.37l.34 43.84s.16 0 .17 0l176.4 176.42h78.42L224.56 205.3c38.9 1.2 82.98.78 112.65-4.96 5.53-1.07 9.78-3.18 15.65-6.28 14.35-7.6 23.23-18.57 30.3-31.24 8.5-15.22 12.83-33.26 12.87-50.7.04-17.77-2.84-37.07-12.87-51.76-10.58-15.5-28.24-26.28-45.94-32.52-11.18-3.94-29.78-4.7-43.9-4.6z"/></g></svg>
